<svg xmlns="http://www.w3.org/2000/svg" width="162" height="162"><g fill="none" stroke="#3BD771" stroke-width="1.194" stroke-linecap="round" stroke-miterlimit="10"><path d="M55.6 88.5l1.8-.3"/><path stroke-dasharray="3.76,3.76" d="M61 87.3c6.7-1.9 17.9-6.1 22.2-14.3 5.9-11.1 17.9-19.3 31-20.8"/><path d="M116.1 52c.6 0 1.2-.1 1.8-.1"/></g><path fill="#EAEDEF" d="M153.7 31.5h-42c-2.2 0-4.1 1.8-4.1 4V76c0 2.3 1.8 4.1 4.1 4.1h42c2.3 0 4.1-1.8 4.1-4.1V35.6c.1-2.3-1.8-4.1-4.1-4.1z"/><path d="M141.5 55.2v-1.9c0-3.9-2.5-7.2-6.2-8.3v-.4c-.2-1.4-1.4-2.4-2.8-2.2-1.1.1-2 1-2.2 2.2v.4a8.67 8.67 0 00-6.2 8.3v1.9c0 4.1-1 5.6-1.7 6.7-.5.6-.8 1.3-.8 2.1 0 2 4.3 2.7 7.7 3 .6 2 2.7 3 4.7 2.4 1.1-.4 2-1.3 2.4-2.4 3.4-.3 7.7-1 7.7-3 0-.8-.3-1.5-.8-2.1-.8-1.1-1.8-2.6-1.8-6.7zm-10-10.6c.1-.7.8-1.1 1.5-1 .5.1.9.5 1 1v.1c-.4-.1-.8-.1-1.2-.1-.4 0-.8 0-1.3.1v-.1zm1.2 23.6c-.9 0-1.8-.5-2.2-1.3l2.2.1 2.2-.1c-.4.8-1.2 1.3-2.2 1.3zm0-2.4c-5.7 0-10-1-10-1.9 0-.9.2-.8.6-1.4.4-.6 1.9-2.8 1.9-7.3v-1.9c.3-4.1 3.9-7.2 8-6.9 3.7.3 6.7 3.2 6.9 6.9v1.9c0 4.5 1.1 6.2 1.9 7.3.7 1.1.6.9.6 1.4.1.5-4.2 1.9-9.9 1.9zM147 51.3c-.2-.3-.5-.4-.9-.3-.2.1-.4.4-.3.7.9 2.7.9 5.6 0 8.3-.1.3.1.7.4.8h.2c.3 0 .5-.2.6-.4 1-3.1 1-6.2 0-9.1zm-3.2.4c-.3.1-.5.4-.4.7v.1c.7 2.2.7 4.5 0 6.7-.1.3 0 .6.3.8h.3c.3 0 .5-.2.6-.4.4-1.2.6-2.5.6-3.8 0-1.3-.2-2.5-.6-3.7-.1-.4-.5-.6-.8-.4zM119 55.8c0-1.4.2-2.8.7-4.1.1-.3 0-.6-.3-.8h-.1c-.3-.1-.6 0-.8.3v.1c-.9 2.9-.9 6.1 0 9 .1.2.3.4.6.4h.2c.3-.1.5-.4.4-.7v-.1c-.5-1.3-.7-2.7-.7-4.1zm3 3.3c-.4-1.1-.5-2.2-.5-3.4 0-1.1.2-2.3.5-3.4.1-.3 0-.6-.3-.8h-.1c-.3-.1-.7.1-.8.4-.8 2.4-.8 5.1 0 7.5.1.2.3.4.6.4h.2c.3-.1.5-.4.4-.7.1.1.1.1 0 0z" fill="#3BD771"/><path fill="#EAEDEF" d="M69 120.3c0 1.8-1.4 3.3-3.3 3.4H5.6c-1.8 0-3.3-1.5-3.3-3.4V58.4c0-1.8 1.5-3.3 3.3-3.4h60.1c1.8 0 3.3 1.5 3.3 3.4v61.9z"/><g fill="#738199"><path d="M26.6 76.9h2.2v2.2h-2.2zm0 5.6h2.2v2.2h-2.2zm-2.7-2.8h2.2v2.2h-2.2zm5.5 0h2.2v2.2h-2.2z"/><path d="M50.2 77.6c-.6-2.1-2.4-3.7-4.5-4l-.9-1.6c-.2-.4-.6-.6-1-.6h-4.4c-.4 0-.8.2-1 .6l-.8 1.6h-5.3l-.8-1.6c-.2-.4-.6-.6-1-.6h-4.4c-.4 0-.8.2-1 .6l-.8 1.6c-2.2.3-4 1.9-4.5 4l-3.4 12.6c-.2.6-.2 1.2-.2 1.8 0 2.6 2.2 4.8 4.8 4.8 1.5 0 3-.7 3.9-2L29 89h3.9c.4 0 .7-.2.9-.5l1.3-1.9 1.3 1.9c.2.3.6.5.9.5H41l4.1 5.8c1.5 2.1 4.5 2.7 6.6 1.2 1.3-.9 2-2.4 2-3.9 0-.6-.1-1.2-.2-1.8l-3.3-12.7zm-1.2 17c-.8 0-1.6-.4-2.1-1l-3.2-4.5H46v-2.2h-8.3l-1.9-2.8c-.3-.5-1-.6-1.5-.3l-.3.3-1.9 2.8h-8.3v2.2h2.3l-3.2 4.5c-.8 1.1-2.5 1.4-3.6.5-.6-.5-1-1.2-1-2 0-.4.1-.8.2-1.2l3.4-12.7c.4-1.4 1.6-2.4 3.1-2.4.4 0 .8-.2 1-.6l.8-1.6h3.1l.8 1.6c.2.4.6.6 1 .6h6.7c.4 0 .8-.2 1-.6l.8-1.6h3l.8 1.6c.2.4.6.6 1 .6 1.5 0 2.7 1 3.1 2.4l3.4 12.7c.1.4.2.8.2 1.2-.1 1.4-1.2 2.5-2.7 2.5z"/><path d="M39.4 79.7c.6 0 1.1.5 1.1 1.1 0 .6-.5 1.1-1.1 1.1-.6 0-1.1-.5-1.1-1.1 0-.6.4-1.1 1.1-1.1zm5.5 0c.6 0 1.1.5 1.1 1v.1c0 .6-.5 1.1-1.1 1.1-.6 0-1.1-.5-1.1-1.1 0-.6.5-1.1 1.1-1.1zm-2.7 2.8c.6 0 1.1.5 1.1 1.1 0 .6-.5 1.1-1.1 1.2-.6 0-1.1-.5-1.2-1.1 0-.7.5-1.2 1.2-1.2-.1 0 0 0 0 0zm0-5.6c.6 0 1.1.5 1.1 1.1-.1.6-.7 1-1.3.9-.5-.1-.9-.5-.9-.9 0-.6.5-1.1 1.1-1.1z"/></g><path fill="#3BD771" d="M75 113.5c0 1.8-1.5 3.3-3.3 3.3H31.8c-1.8 0-3.3-1.5-3.3-3.3v-8.2c0-1.8 1.5-3.3 3.3-3.3h39.9c1.8 0 3.3 1.5 3.3 3.3v8.2z"/><path d="M37.5 112.2h-.8V106h.8v6.2zm2.2-4.6v.6c.3-.4.8-.7 1.4-.7 1 0 1.4.6 1.5 1.6v3h-.8v-3c0-.3 0-.5-.2-.7-.2-.2-.4-.3-.7-.2-.2 0-.5.1-.7.2-.2.2-.3.3-.4.5v3.3H39v-4.6h.7zm8.8 3.4c0-.2-.1-.4-.2-.5-.3-.2-.5-.3-.8-.3l-.9-.3c-.2-.1-.4-.2-.5-.4-.1-.2-.1-.4-.1-.6 0-.4.2-.7.5-1 .3-.3.8-.4 1.2-.4.5 0 .9.1 1.3.4.3.2.5.6.5 1h-.8c0-.2-.1-.4-.3-.5-.2-.2-.4-.2-.7-.2-.2 0-.5.1-.7.2-.1.1-.2.3-.2.5s.1.3.2.4c.3.1.5.2.8.3l.9.3c.2.1.4.3.5.4.1.2.2.4.2.6 0 .4-.2.8-.5 1-.4.3-.8.4-1.3.4-.3 0-.7-.1-1-.2-.3-.1-.5-.3-.7-.5-.2-.2-.2-.5-.2-.8h.8c0 .2.1.5.3.6.2.2.5.2.8.2.3 0 .5-.1.7-.2.1 0 .2-.2.2-.4zm2.9-4.5v1.1h.9v.6h-.9v2.9c0 .1 0 .3.1.4.1.1.2.1.4.1l.4-.1v.6c-.2.1-.4.1-.6.1-.3 0-.6-.1-.8-.3-.2-.3-.3-.6-.3-.9v-2.8h-.8v-.6h.8v-1.1h.8zm1.5 3.3c0-.4.1-.8.3-1.2.3-.7 1-1.2 1.8-1.1.6 0 1.1.2 1.5.7.4.5.6 1.1.6 1.7 0 .4-.1.8-.3 1.2-.2.3-.4.6-.7.8-.3.2-.7.3-1.1.3-.6 0-1.1-.2-1.5-.7-.5-.4-.7-1-.6-1.7zm.8.2c0 .4.1.9.4 1.2.2.3.6.5.9.5.4 0 .7-.2 1-.5.3-.4.4-.8.4-1.3 0-.4-.1-.8-.4-1.2-.4-.5-1.1-.6-1.7-.2l-.2.2c-.3.3-.5.8-.4 1.3zm6.1 1.6c.3 0 .5-.1.7-.3.2-.1.3-.4.3-.6h.7c0 .3-.1.5-.3.7-.2.2-.4.4-.7.6-.8.4-1.8.2-2.4-.4-.4-.5-.6-1.1-.6-1.7v-.1c0-.4.1-.8.2-1.2.2-.3.4-.6.7-.8.3-.2.7-.3 1.1-.3.5 0 .9.1 1.3.4.3.3.5.7.5 1.2h-.7c0-.3-.1-.5-.3-.7-.2-.2-.5-.3-.7-.3-.4 0-.7.1-.9.4-.2.4-.4.8-.3 1.3v.1c0 .4.1.9.3 1.2.4.4.8.5 1.1.5zm4-1.6l-.5.5v1.6h-.8v-6.5h.8v3.9l.4-.5 1.4-1.5h1l-1.8 1.9 2 2.7h-.9l-1.6-2.1z" fill="#FFF"/><path fill="none" stroke="#3BD771" stroke-width="1.194" stroke-linecap="round" stroke-linejoin="round" stroke-miterlimit="10" d="M104.4 51.6l4.2.9-1.8 4.1"/></svg>