<svg version="1.1" id="Layer_1" xmlns="http://www.w3.org/2000/svg" x="0" y="0" viewBox="0 0 800 677" xml:space="preserve"><style>.st2{fill:#131a26;stroke:#131a26;stroke-width:12;stroke-miterlimit:10}</style><path d="M0 1.1h675.9V677H0V1.1z" fill="#ebfbf1"/><path d="M491.9 323.8c84.7 0 153.5-68.7 153.5-153.5S576.7 16.9 491.9 16.9 338.4 85.6 338.4 170.4c.1 84.7 68.8 153.4 153.5 153.4z" fill="#27c6f4"/><g id="_37_rating"><path class="st2" d="M442.6 97.7H238.4c-31.2 0-56.6 25.4-56.6 56.6V335c0 31.2 25.4 56.6 56.6 56.6h21l73.9 87c2.6 3 6.7 4.1 10.4 2.7 3.8-1.3 6.3-4.9 6.2-8.9v-80.9h92.7c31.2 0 56.6-25.4 56.6-56.6V154.2c0-31.2-25.3-56.5-56.6-56.5zm37.8 237.2c0 20.8-16.9 37.7-37.7 37.7H340.5c-5.2 0-9.4 4.2-9.4 9.4v64.6l-60.2-70.8c-1.8-2.1-4.4-3.3-7.2-3.3h-25.4c-20.8 0-37.7-16.9-37.7-37.7V154.2c0-20.8 16.9-37.7 37.7-37.7h204.2c20.8 0 37.7 16.9 37.7 37.7l.2 180.7z"/><path class="st2" d="M437.6 166.1c0 5.2-3.6 9.4-8 9.4H243.2c-4.4 0-8-4.2-8-9.4s3.6-9.4 8-9.4h186.5c4.3-.1 7.9 4.2 7.9 9.4zm0 59.7c0 5.2-3.6 9.4-8 9.4H243.2c-4.4 0-8-4.2-8-9.4s3.6-9.4 8-9.4h186.5c4.3-.1 7.9 4.2 7.9 9.4zm0 61.6c0 5.2-3.6 9.4-8.1 9.4H307.8c-4.5 0-8.1-4.2-8.1-9.4s3.6-9.4 8.1-9.4h121.7c4.4 0 8.1 4.2 8.1 9.4z"/><path d="M553.9 525.7c-.9-2.6-3.3-4.3-6.1-4.3h-26.2l-8.1-24.9c-1.1-3.4-4.7-5.1-8-4-2 .7-3.4 2.2-4 4l-8.1 24.9h-26.2c-3.5 0-6.4 2.8-6.4 6.3 0 2.1 1 4 2.6 5.2l21.2 15.4-8.1 24.9c-1.1 3.4.8 6.9 4.1 7.9 2 .7 4 .2 5.6-.9l21.1-15.4 21.1 15.4c1.1.8 2.4 1.2 3.8 1.2 1.3 0 2.7-.4 3.8-1.2 2.3-1.6 3.1-4.4 2.3-7l-8-24.8 21.1-15.4c2.4-1.8 3.3-4.7 2.5-7.3zm-36.9 22l3.5 10.7-9.1-6.6c-1.1-.8-2.4-1.2-3.8-1.2-1.3 0-2.6.4-3.8 1.2l-9.1 6.6 3.5-10.7c.9-2.6 0-5.4-2.3-7l-9.1-6.6H498c2.7 0 5.2-1.7 6.1-4.3l3.5-10.7 3.5 10.7c.9 2.6 3.3 4.3 6.1 4.3h11.3l-9.1 6.6c-2.4 1.6-3.3 4.4-2.4 7zm-327.2-17.1c-.9-2.6-3.3-4.3-6.1-4.3h-26.2l-8.1-24.9c-1.1-3.4-4.7-5.1-8-4-2 .7-3.4 2.2-4 4l-8.1 24.9H103c-3.5 0-6.4 2.8-6.4 6.3 0 2.1 1 4 2.6 5.2l21.2 15.4-8.1 24.9c-1.1 3.4.8 6.9 4.1 7.9 2 .7 4 .2 5.6-.9l21.1-15.4 21.1 15.4c1.1.8 2.4 1.2 3.8 1.2 1.3 0 2.7-.4 3.8-1.2 2.3-1.6 3.1-4.4 2.3-7l-8-24.8 21.1-15.4c2.5-1.9 3.4-4.7 2.6-7.3zm-36.9 22l3.5 10.7-9.1-6.6c-1.1-.8-2.4-1.2-3.8-1.2-1.3 0-2.6.4-3.8 1.2l-9.1 6.6 3.5-10.7c.9-2.6 0-5.4-2.3-7l-9.1-6.6H134c2.7 0 5.2-1.7 6.1-4.3l3.5-10.7 3.5 10.7c.9 2.6 3.3 4.3 6.1 4.3h11.3l-9.1 6.6c-2.5 1.6-3.4 4.4-2.5 7zm220.2 17.8c-.9-2.6-3.3-4.3-6.1-4.3h-26.1l-8.1-24.9c-1.1-3.4-4.7-5.1-8-4-2 .7-3.4 2.2-4 4l-8.1 24.9h-26.2c-3.5 0-6.4 2.8-6.4 6.3 0 2.1 1 4 2.6 5.2l21.2 15.4-8.1 24.9c-1.1 3.4.8 6.9 4.1 7.9 2 .7 4 .2 5.6-.9l21.1-15.4 21.1 15.4c1.1.8 2.4 1.2 3.8 1.2 1.3 0 2.7-.4 3.8-1.2 2.3-1.6 3.1-4.4 2.3-7l-8-24.8 21.1-15.4c2.4-1.8 3.3-4.7 2.4-7.3zm-36.9 22l3.5 10.7-9.1-6.6c-1.1-.8-2.4-1.2-3.8-1.2-1.3 0-2.6.4-3.8 1.2l-9.1 6.6 3.5-10.7c.9-2.6 0-5.4-2.3-7l-9.1-6.6h11.3c2.7 0 5.2-1.7 6.1-4.3l3.5-10.7 3.5 10.7c.9 2.6 3.3 4.3 6.1 4.3h11.3l-9.1 6.6c-2.4 1.6-3.3 4.4-2.5 7z" stroke-width="3" fill="#131a26" stroke="#131a26" stroke-miterlimit="10"/></g></svg>