<svg data-name="Layer 1" xmlns="http://www.w3.org/2000/svg" viewBox="0 0 482.4 230.5"><defs><linearGradient id="a" x1="242.89" y1="230.52" x2="242.89" y2="63.44" gradientUnits="userSpaceOnUse"><stop offset="0" stop-color="#00dc63" stop-opacity="0"/><stop offset=".1" stop-color="#00dc63" stop-opacity=".05"/><stop offset=".27" stop-color="#00dc63" stop-opacity=".18"/><stop offset=".49" stop-color="#00dc63" stop-opacity=".4"/><stop offset=".75" stop-color="#00dc63" stop-opacity=".69"/><stop offset="1" stop-color="#00dc63"/></linearGradient></defs><path fill="#738199" d="M5.8 80.5h2.5v1H5.8zm466.6 1h-5v-1h5zm-10.1 0h-5v-1h5zm-10.1 0h-5v-1h5zm-10.1 0h-5v-1h5zm-10.1 0h-5v-1h5zm-10 0h-5.1v-1h5.1zm-10.1 0h-5.1v-1h5.1zm-10.1 0h-5.1v-1h5.1zm-10.1 0h-5v-1h5zm-10.1 0h-5v-1h5zm-10.1 0h-5v-1h5zm-10.1 0h-5v-1h5zm-10.1 0h-5v-1h5zm-10 0h-5.1v-1h5.1zm-10.1 0h-5.1v-1h5.1zm-10.1 0H316v-1h5.1zm-10.1 0h-5.1v-1h5.1zm-10.1 0h-5v-1h5zm-10.1 0h-5v-1h5zm-10.1 0h-5v-1h5zm-10.1 0h-5v-1h5zm-10.1 0h-5v-1h5zm-10 0h-5.1v-1h5.1zm-10.1 0h-5.1v-1h5.1zm-10.1 0h-5.1v-1h5.1zm-10.1 0h-5.1v-1h5.1zm-10.1 0h-5v-1h5zm-10.1 0h-5v-1h5zm-10.1 0h-5v-1h5zm-10.1 0h-5v-1h5zm-10 0h-5.1v-1h5.1zm-10.1 0h-5.1v-1h5.1zm-10.1 0h-5.1v-1h5.1zm-10.1 0h-5.1v-1h5.1zm-10.1 0h-5v-1h5zm-10.1 0h-5v-1h5zm-10.1 0h-5v-1h5zm-10.1 0h-5v-1h5zm-10.1 0h-5v-1h5zm-10 0h-5.1v-1H79zm-10.1 0h-5.1v-1h5.1zm-10.1 0h-5.1v-1h5.1zm-10.1 0h-5.1v-1h5.1zm-10.1 0h-5v-1h5zm-10.1 0h-5v-1h5zm-10.1 0h-5v-1h5zm459-1h2.5v1h-2.5zm-471.6 66h2.5v1H5.8zm466.6 1h-5v-1h5zm-10.1 0h-5v-1h5zm-10.1 0h-5v-1h5zm-10.1 0h-5v-1h5zm-10.1 0h-5v-1h5zm-10 0h-5.1v-1h5.1zm-10.1 0h-5.1v-1h5.1zm-10.1 0h-5.1v-1h5.1zm-10.1 0h-5v-1h5zm-10.1 0h-5v-1h5zm-10.1 0h-5v-1h5zm-10.1 0h-5v-1h5zm-10.1 0h-5v-1h5zm-10 0h-5.1v-1h5.1zm-10.1 0h-5.1v-1h5.1zm-10.1 0H316v-1h5.1zm-10.1 0h-5.1v-1h5.1zm-10.1 0h-5v-1h5zm-10.1 0h-5v-1h5zm-10.1 0h-5v-1h5zm-10.1 0h-5v-1h5zm-10.1 0h-5v-1h5zm-10 0h-5.1v-1h5.1zm-10.1 0h-5.1v-1h5.1zm-10.1 0h-5.1v-1h5.1zm-10.1 0h-5.1v-1h5.1zm-10.1 0h-5v-1h5zm-10.1 0h-5v-1h5zm-10.1 0h-5v-1h5zm-10.1 0h-5v-1h5zm-10 0h-5.1v-1h5.1zm-10.1 0h-5.1v-1h5.1zm-10.1 0h-5.1v-1h5.1zm-10.1 0h-5.1v-1h5.1zm-10.1 0h-5v-1h5zm-10.1 0h-5v-1h5zm-10.1 0h-5v-1h5zm-10.1 0h-5v-1h5zm-10.1 0h-5v-1h5zm-10 0h-5.1v-1H79zm-10.1 0h-5.1v-1h5.1zm-10.1 0h-5.1v-1h5.1zm-10.1 0h-5.1v-1h5.1zm-10.1 0h-5v-1h5zm-10.1 0h-5v-1h5zm-10.1 0h-5v-1h5zm459-1h2.5v1h-2.5z"/><text transform="translate(48.1 33.4)" font-size="29" fill="#738199" font-family="Roboto-Bold, Roboto" font-weight="700">526.735ms</text><path d="M32.9 24a16.5 16.5 0 11-19-16.2V5.1h-2.2a1.1 1.1 0 01-1-1V.9a1 1 0 011-.9h9.5a.9.9 0 01.9.9v3.2a1 1 0 01-.9 1H19v2.7a16.6 16.6 0 017.9 3.5L29 9.1a1.2 1.2 0 011.4 0l2.2 2.3a.9.9 0 010 1.3L30.3 15h-.1a16.1 16.1 0 012.7 9zM19 26.9v-12a1 1 0 00-1-.9h-3.1a.9.9 0 00-1 .9v12a.9.9 0 001 .9H18a1 1 0 001-.9z" fill="#738199"/><path d="M5.8 216.7a2.3 2.3 0 01-2-1 2.5 2.5 0 01.6-3.5l10.4-7.3 5.2-9.5a5.6 5.6 0 015.3-3.3 6 6 0 015.1 3.9l5.6 13.2 6-5a5.7 5.7 0 011.3-.8l21.3-9.9c13.2-6.8 28.4-4.3 39.7 6.5l3.6 3.4a1 1 0 01.4.5c.2.3.4.5.6.5l6.6 1.1c.2.1.5-.2.7-.6l3.7-7.1a5.9 5.9 0 014.4-3.2 5.7 5.7 0 014.7 1.7l4.1 4.3 4.3-23.5 4.8-60a4.7 4.7 0 01.3-1.7l14.1-48.2c.9-3 3.3-4.9 6-4.7s5.1 2.6 5.6 5.8l6.3 42.4 2.3-8.3c1.1-3.6 3.9-5 6.2-4.7s5.2 2.9 5.5 6.4l5.4 76.7 5.2-4.2a5.6 5.6 0 014.5-1.1 6.4 6.4 0 014.1 3.3l13.8 26.8 7.3-70.8c.3-3.4 2.5-5.9 5.4-6.2s5.2 1.5 6.1 4.5l11.2 35 6.8-29.5a6.6 6.6 0 013.9-4.9 5.5 5.5 0 015.1.8l5.8 4.3a6.7 6.7 0 012.3 3.1l6.2 16.6 8.5-66.2a2.5 2.5 0 014.9.1l7.5 78.7 4-13.1a6.2 6.2 0 015.5-4.6c2.5-.1 4.6 1.5 5.6 4.1l7.6 19.8 5.1 11.6 6.8-56.9 9.7-65.2c.4-3.2 2.5-5.5 5.2-5.8s4.9 1.2 6.1 3.9l6.6 16a10.5 10.5 0 01.6 2.4l7 80.6 3.2-20.8c.5-3.9 3.3-5.7 5.8-5.8s5.2 1.6 5.9 5.5l5.2 27.1 5-6.5a5.4 5.4 0 017.2-1.5l6.4 3.8 5.9-11.3a5.6 5.6 0 014.4-3.2 5.3 5.3 0 014.8 1.8l5.8 6.4a7.4 7.4 0 011.5 2.6l7.4 23 4.5-18.5c.8-3 3-4.9 5.6-5a6 6 0 015.8 4.5l4.2 13.4 7.2-18.7a2.3 2.3 0 013.1-1.5l9.6 3.2a2.5 2.5 0 011.5 3.2 2.5 2.5 0 01-3.2 1.6l-7.2-2.5-8.9 23.1a2.5 2.5 0 01-4.7-.1l-6.4-20.2c-.2-.7-.6-1-.8-1s-.7.3-.9 1.2l-6.7 27.1a2.4 2.4 0 01-2.3 1.9h-.1a2.6 2.6 0 01-2.4-1.7l-10.1-31.5a2 2 0 00-.4-.8l-5.8-6.3a.9.9 0 00-.5-.3c-.1 0-.4.2-.6.7l-7.1 13.5a2.4 2.4 0 01-1.5 1.3 2.4 2.4 0 01-2-.3l-8.7-5.1c-.1-.1-.3-.2-.6.3l-8.5 10.9a2.5 2.5 0 01-4.4-1.1l-6.2-32.6c-.2-.9-.6-1.4-.9-1.4-.3 0-.8.4-1 1.5l-6.2 41.6a2.5 2.5 0 01-5-.1l-8.9-101.6a1.9 1.9 0 00-.2-.8l-6.7-16.1c-.2-.6-.5-.9-.7-.9s-.8.5-1 1.6l-9.6 65.2-7.9 65.8a2.7 2.7 0 01-2.2 2.2 2.3 2.3 0 01-2.6-1.5l-8.8-19.9c0-.1-.1-.2-.1-.3l-7.5-19.7c-.3-.6-.6-.9-.8-.9-.2 0-.6.3-.9 1.1l-7.7 25.1a2.4 2.4 0 01-2.6 1.8 2.6 2.6 0 01-2.3-2.3l-6.5-68.9-6.9 53.9a2.4 2.4 0 01-2.2 2.2 2.5 2.5 0 01-2.6-1.6l-9.8-26.1-.6-.8-5.8-4.3h-.3c-.3.1-.7.4-.9 1.3l-8.7 38.5a2.5 2.5 0 01-4.8.2l-14-43.7c-.3-.7-.6-1.1-.9-1.1s-.8.5-1 1.7l-8.1 79.2a2.4 2.4 0 01-2 2.2 2.5 2.5 0 01-2.7-1.3l-17.7-34.3c-.2-.5-.5-.7-.6-.7h-.3l-8.9 7.3a2.7 2.7 0 01-2.6.3 2.5 2.5 0 01-1.5-2.1l-5.8-81.6c-.1-1.2-.6-1.7-1-1.8s-.7.5-.9 1.2l-5.5 19.5a2.5 2.5 0 01-2.6 1.8 2.7 2.7 0 01-2.3-2.1l-8-53.9c-.1-1.1-.6-1.6-.9-1.6s-.6.3-.9 1.1l-14.1 48.2a1.5 1.5 0 00-.1.7l-4.8 60.1a.4.4 0 00-.1.3l-5.1 28.4a2.8 2.8 0 01-1.8 2 2.6 2.6 0 01-2.5-.7l-7.5-7.8-.4-.3-.7.7-3.7 7a5.7 5.7 0 01-5.9 3.3l-6.6-1.2a5.6 5.6 0 01-3.9-2.5l-3.3-3.2c-9.9-9.4-22.7-11.6-34-5.6h-.1l-21.4 10h-.2l-8.6 7.1a2.5 2.5 0 01-2.2.5 2.2 2.2 0 01-1.7-1.4L25.8 198c-.2-.6-.5-.9-.7-.9a1 1 0 00-.7.6l-5.5 10.1a1.6 1.6 0 01-.7.9l-10.9 7.6a2.8 2.8 0 01-1.5.4z" fill="#00dc63"/><path d="M479.9 230.5v-65.7l-9.5-3.2-9.7 25.4-6.4-20.2c-1.2-3.9-5.6-3.7-6.5.3l-6.7 27.1-10.1-31.4a5.2 5.2 0 00-1-1.8l-5.8-6.3c-1.6-1.8-4-1.3-5.1.9l-7.1 13.6-8.7-5.2a2.9 2.9 0 00-3.9.9l-8.4 11-6.3-32.7c-.9-4.7-6.1-4.5-6.8.3l-6.2 41.5-8.9-101.5a9.4 9.4 0 00-.4-1.6l-6.7-16.1c-1.5-3.7-5.8-2.9-6.5 1.3l-9.6 65.2-7.9 65.9-8.8-19.9a.3.3 0 00-.1-.2l-7.5-19.7c-1.3-3.5-5.3-3.3-6.4.4l-7.7 25.1-8.7-91.3-9.7 76.2-9.8-26.1a4.5 4.5 0 00-1.4-1.9l-5.8-4.3c-2-1.5-4.5-.2-5.1 2.6l-8.8 38.5-14-43.7c-1.3-4.3-6.2-3.5-6.6 1.1l-8.2 79.2-17.7-34.3c-1-2-3.1-2.6-4.7-1.3l-8.9 7.2-5.8-81.5c-.4-4.8-5.5-5.7-6.8-1.2l-5.5 19.5-8-53.9c-.7-4.5-5.4-5-6.7-.8l-14.1 48.2a5 5 0 00-.2 1.2l-4.8 60.1-5.2 28.5-7.5-7.9c-1.6-1.6-3.9-1.2-5.1 1l-3.7 7.1a3.2 3.2 0 01-3.3 1.9l-6.6-1.1a3.6 3.6 0 01-2.3-1.7l-3.6-3.4C92 191.6 78 189.4 65.7 195.7l-21.4 10-.7.4-8.6 7.2-6.9-16.3c-1.2-3-4.4-3.2-5.9-.4l-5.5 10-10.9 7.6v16.3" fill="url(#a)"/></svg>