<svg version="1.1" id="Layer_1" xmlns="http://www.w3.org/2000/svg" x="0" y="0" viewBox="0 0 800 677" xml:space="preserve"><style>.st2{stroke:#000;stroke-width:13;stroke-miterlimit:10}</style><path d="M0 1.1h675.9V677H0V1.1z" fill="#ebfbf1"/><path d="M613.2 320.2c84.7 0 153.5-68.7 153.5-153.5S698 13.3 613.2 13.3 459.7 82 459.7 166.8c.1 84.7 68.8 153.4 153.5 153.4z" fill="#27c6f4"/><path class="st2" d="M174.4 271.2V170.3c.3-.5.7-1 .9-1.6 4.9-15.2 14.7-22.7 30.2-22.7h406.7c18.3 0 30.7 12.6 30.8 31.3v86.9c0 2.5-.1 5-.6 7.4-3.2 15-14.7 23.9-30.6 23.9H202.7c-6.5-.2-12.1-2.5-17.3-6.5-5.8-4.6-8.5-11.1-11-17.8zm233.8 9.4h202.2c12.3 0 17.9-5.7 17.9-18.2v-83.1c0-12.6-5.6-18.2-17.9-18.2H206.9c-12.3 0-17.9 5.7-17.9 18.2v82.2c0 13.9 5.2 19.2 18.8 19.2 66.8-.1 133.6-.1 200.4-.1zm-233.8 171V350.7c.3-.5.7-1 .9-1.6 4.9-15.2 14.7-22.7 30.2-22.7h406.7c18.3 0 30.7 12.6 30.8 31.3v86.9c0 2.5-.1 5-.6 7.4-3.2 15-14.7 23.9-30.6 23.9H202.7c-6.5-.2-12.1-2.5-17.3-6.5-5.8-4.5-8.5-11-11-17.8zm234.3 9.4h201.8c12.3 0 17.9-5.7 17.9-18.3v-83.1c0-12.5-5.6-18.2-17.9-18.2H207c-12.3 0-17.9 5.7-17.9 18.3v82.2c0 13.8 5.2 19.1 18.8 19.1h200.8zm210.5 195.4h-421c-3.9-1.9-8.1-3.5-11.7-5.8-6.6-4.3-9.6-11.2-12.1-18.5V531.2c5.8-18.9 18.9-24.6 37.5-24.5 132.4.4 264.8.2 397.2.2h5.5c15.5.5 28.2 13.1 28.3 29 .2 30.5.1 61 0 91.6 0 6.6-2.4 12.4-6.3 17.6-4.5 6-10.8 8.8-17.4 11.3zm-210.9-14.9h202.2c12.3 0 17.8-5.7 17.8-18.3V540c0-12.5-5.6-18.2-18-18.2H206.8c-12.3 0-17.8 5.7-17.8 18.3v82.7c0 13.2 5.4 18.6 18.4 18.6 67.1.1 134 .1 200.9.1z"/><path d="M174.4 632.1c2.5 7.2 5.5 14.2 12.1 18.5 3.6 2.4 7.8 3.9 11.7 5.8h-23.8v-24.3z" fill="#fff" stroke="#000" stroke-width="13" stroke-miterlimit="10"/><path class="st2" d="M306 228.2h-69.1c-1.4 0-2.8.1-4.1-.1-4.1-.4-6.9-3.4-7-7.3 0-3.8 2.8-7 6.8-7.4 1.2-.1 2.4-.1 3.7-.1h140c1.2 0 2.5-.1 3.6.1 4 .5 7 3.7 6.7 7.5-.2 4.1-2.6 6.5-6.5 7.2-1.3.2-2.7.1-4.1.1h-70zm256.6 14.9c-12.2.1-22.1-9.9-22.1-22.4 0-12.5 9.8-22.5 22-22.4 12 0 21.8 9.9 21.9 22.1.1 12.6-9.6 22.7-21.8 22.7zM306.4 393.8h69.1c1.4 0 2.8-.1 4.1.1 4.1.4 6.9 3.4 7 7.3.1 3.8-2.8 7-6.8 7.5-1.4.2-2.7.1-4.1.1H234.3c-5.4-.1-8.7-3-8.6-7.5.1-4.5 3.4-7.3 8.8-7.3 24-.3 48-.2 71.9-.2zm256-15c12.2 0 22 10 22 22.5 0 12.4-9.9 22.4-22.1 22.3-12-.1-21.7-10-21.8-22.2 0-12.5 9.7-22.6 21.9-22.6zM306 589.1h-69.1c-1.4 0-2.8.1-4.1-.1-4.1-.4-6.9-3.4-7-7.3-.1-4 2.9-7.1 7.2-7.5 1.2-.1 2.4 0 3.7 0h139.1c7.5 0 11 2.5 10.9 7.6-.1 5-3.5 7.3-11.1 7.3H306zm234.5-7.3c0-12.5 9.7-22.5 21.9-22.5s22 10 22 22.5c0 12.2-9.8 22.2-21.7 22.3-12.3 0-22.1-9.9-22.2-22.3z"/></svg>