<svg version="1.1" id="Layer_1" xmlns="http://www.w3.org/2000/svg" x="0" y="0" viewBox="0 0 590.7 145.8" xml:space="preserve"><style>.st0{fill:#36d56c}</style><path class="st0" d="M467.9 11.6c0 1.7-.3 3.5-1 5.1-.6 1.3-1.5 2.5-2.8 3.3-3.5 2.3-8.3 1.3-10.6-2.3-.2-.3-.4-.7-.6-1-.7-1.5-1-3.2-1-4.9v-1.4c0-1.7.3-3.4 1-5 1.2-2.8 3.9-4.6 6.9-4.5 1.5 0 2.9.4 4.2 1.2 1.2.8 2.2 2 2.8 3.3.7 1.6 1 3.3 1 5.1l.1 1.1zm-2.6-1.3c.1-1.9-.4-3.8-1.4-5.4-.9-1.3-2.4-2-4-1.9-1.5-.1-3 .6-3.9 1.9-1 1.5-1.5 3.4-1.5 5.2v1.4c-.1 1.9.4 3.8 1.5 5.4 1.7 2.2 4.8 2.6 7 .9.3-.2.6-.5.9-.8 1-1.6 1.5-3.4 1.4-5.3v-1.4zm18.5 3.4c.1 1.9-.4 3.8-1.5 5.4-1 1.3-2.5 2.1-4.1 2.1-1.6.1-3.1-.5-4.2-1.7v7.1h-2.5V6.2h2.3l.1 1.6c1-1.3 2.6-2 4.3-1.9 1.6-.1 3.2.7 4.2 2 1.1 1.6 1.7 3.6 1.5 5.6l-.1.2zm-2.5-.3c.1-1.4-.3-2.8-1.1-3.9-.7-1-1.7-1.5-2.9-1.5-1.4-.1-2.8.7-3.4 2v7c.7 1.3 2 2.1 3.5 2 1.1 0 2.2-.5 2.9-1.4.7-1.3 1.1-2.7 1-4.2zm11.8 7.7c-1.8.1-3.6-.7-4.9-2-1.3-1.4-2-3.3-1.9-5.2v-.5c0-1.3.3-2.7.8-3.9.5-1.1 1.3-2 2.3-2.7 1-.6 2.1-1 3.3-1 1.7-.1 3.3.6 4.5 1.9 1.2 1.6 1.7 3.5 1.6 5.4v1.1h-10c0 1.3.4 2.5 1.3 3.5.8.9 1.9 1.4 3.1 1.3.8 0 1.6-.2 2.3-.5.6-.4 1.2-.9 1.6-1.4l1.6 1.3c-1.2 1.8-3.4 2.9-5.6 2.7zM492.8 8c-1 0-1.9.4-2.6 1.1-.7.9-1.2 2-1.3 3.1h7.4V12c0-1.1-.3-2.1-1-3-.6-.7-1.5-1.1-2.5-1zm16.1.4c-.4-.1-.8-.1-1.2-.1-1.5-.1-2.8.7-3.4 2.1v10.4h-2.5V6.2h2.4v1.7c.7-1.3 2.1-2 3.5-2 .4 0 .8 0 1.1.2v2.3zm10.8 12.5c-.2-.5-.3-1-.3-1.5-1.1 1.2-2.6 1.8-4.2 1.8-1.3.1-2.6-.4-3.6-1.2a4.1 4.1 0 01-1.4-3.1c-.1-1.4.6-2.8 1.7-3.6 1.5-.9 3.2-1.3 4.9-1.2h2.5v-1.2c0-.8-.2-1.5-.8-2.1-.6-.6-1.5-.8-2.3-.8-.8 0-1.6.2-2.3.7-.6.4-.9 1-.9 1.6h-2.5c0-.8.3-1.5.8-2.1.6-.7 1.3-1.3 2.1-1.6.9-.4 1.9-.6 2.9-.6 1.4-.1 2.9.4 4 1.3 1 .9 1.5 2.2 1.5 3.5v6.8c0 1.1.1 2.2.5 3.2v.2h-2.6zm-4.2-1.9c.8 0 1.6-.2 2.2-.6.7-.4 1.2-.9 1.5-1.6v-3h-2c-3.1 0-4.6.9-4.6 2.7 0 .7.3 1.4.8 1.8.6.5 1.4.7 2.1.7zm13.7-16.4v3.6h2.7v1.9h-2.7v9.1c0 .5.1.9.4 1.3.3.3.8.5 1.2.4.4 0 .8-.1 1.2-.2v2c-.6.2-1.3.3-1.9.3-1 .1-1.9-.3-2.5-1-.6-.8-.9-1.9-.9-2.9v-9H524V6.2h2.7V2.6h2.5zm5.7-.3c0-.4.1-.7.4-1 .3-.3.7-.5 1.1-.4.4 0 .8.1 1.1.4.2.3.4.6.4 1s-.1.7-.4 1c-.3.3-.7.4-1.1.4-.4 0-.8-.1-1.1-.4-.3-.3-.5-.7-.4-1zm2.7 18.6h-2.5V6.2h2.5v14.7zm3.3-7.5c0-1.3.3-2.7.9-3.9.5-1.1 1.3-2 2.4-2.7 1-.6 2.2-1 3.5-.9 1.9-.1 3.6.7 4.9 2.1 1.3 1.5 2 3.5 1.8 5.5v.2c0 1.3-.3 2.6-.8 3.9-.5 1.1-1.3 2-2.3 2.7-1.1.6-2.3 1-3.5 1-1.8.1-3.6-.7-4.8-2.1-1.3-1.5-2-3.5-1.9-5.5v-.3zm2.6.3c-.1 1.4.3 2.8 1.1 3.9 1.3 1.7 3.7 2 5.4.7.3-.2.5-.4.7-.7.8-1.2 1.2-2.7 1.1-4.2.1-1.4-.3-2.8-1.1-3.9-.7-1-1.9-1.5-3.1-1.5-1.2 0-2.3.5-3 1.5-.8 1.2-1.2 2.7-1.1 4.2zm16.3-7.5l.1 1.8c1-1.4 2.7-2.2 4.4-2.1 3.1 0 4.7 1.8 4.7 5.3v9.7h-2.5v-9.7c.1-.8-.2-1.7-.7-2.3-.6-.6-1.4-.9-2.2-.8-.8 0-1.5.2-2.1.6-.6.4-1.1 1-1.4 1.7v10.5h-2.5V6.2h2.2zm22.1 14.7c-.2-.5-.3-1-.4-1.5-1.1 1.2-2.6 1.8-4.2 1.8-1.3.1-2.6-.4-3.6-1.2a4.1 4.1 0 01-1.4-3.1c-.1-1.4.6-2.8 1.8-3.6 1.5-.9 3.2-1.3 4.9-1.2h2.4v-1.2c0-.8-.3-1.5-.8-2.1-.6-.6-1.5-.8-2.3-.8-.8 0-1.6.2-2.2.7-.6.4-.9 1-.9 1.6h-2.5c0-.8.3-1.5.8-2.1.6-.7 1.3-1.3 2.1-1.6.9-.4 1.9-.6 2.9-.6 1.4-.1 2.9.4 4 1.3 1 .9 1.5 2.2 1.5 3.5v6.8c0 1.1.1 2.2.5 3.2v.2l-2.6-.1zm-4.2-1.9c.8 0 1.6-.2 2.2-.6.7-.4 1.2-.9 1.5-1.6v-3h-2c-3.1 0-4.6.9-4.6 2.7 0 .7.3 1.4.8 1.8.6.5 1.4.7 2.1.7zm13 1.9h-2.5V0h2.5v20.9zM11.3 85.4c0 2.8-2.3 5.1-5.1 5.1H5.1c-2.8 0-5.1-2.3-5.1-5.1v-30c0-2.8 2.3-5.1 5.1-5.1h1.1c2.8 0 5.1 2.3 5.1 5.1v30zm17.8 0c0 2.8-2.3 5.1-5.1 5.1h-1.1c-2.8 0-5.1-2.3-5.1-5.1v-30c0-2.8 2.3-5.1 5.1-5.1H24c2.8 0 5.1 2.3 5.1 5.1v30zm17.7 0c0 2.8-2.3 5.1-5.1 5.1h-1.1c-2.8 0-5.1-2.3-5.1-5.1v-30c0-2.8 2.3-5.1 5.1-5.1h1.1c2.8 0 5.1 2.3 5.1 5.1v30zm17.8 0c0 2.8-2.3 5.1-5.1 5.1h-1.1c-2.8 0-5.1-2.3-5.1-5.1v-30c0-2.8 2.3-5.1 5.1-5.1h1.1c2.8 0 5.1 2.3 5.1 5.1v30zm20 0c0 2.8-2.3 5.1-5.1 5.1h-1.1c-2.8 0-5.1-2.3-5.1-5.1v-30c0-2.8 2.3-5.1 5.1-5.1h1.1c2.8 0 5.1 2.3 5.1 5.1v30zm17.7 0c0 2.8-2.3 5.1-5.1 5.1h-1.1c-2.8 0-5.1-2.3-5.1-5.1v-30c0-2.8 2.3-5.1 5.1-5.1h1.1c2.8 0 5.1 2.3 5.1 5.1v30zm17.8 0c0 2.8-2.3 5.1-5.1 5.1h-1.1c-2.8 0-5.1-2.3-5.1-5.1v-30c0-2.8 2.3-5.1 5.1-5.1h1.1c2.8 0 5.1 2.3 5.1 5.1v30zm17.7 0c0 2.8-2.3 5.1-5.1 5.1h-1.1c-2.8 0-5.1-2.3-5.1-5.1v-30c0-2.8 2.3-5.1 5.1-5.1h1.1c2.8 0 5.1 2.3 5.1 5.1v30zm17.8 0c0 2.8-2.3 5.1-5.1 5.1h-1.1c-2.8 0-5.1-2.3-5.1-5.1v-30c0-2.8 2.3-5.1 5.1-5.1h1.1c2.8 0 5.1 2.3 5.1 5.1v30zm17.8 0c0 2.8-2.3 5.1-5.1 5.1h-1.1c-2.8 0-5.1-2.3-5.1-5.1v-30c0-2.8 2.3-5.1 5.1-5.1h1.1c2.8 0 5.1 2.3 5.1 5.1v30zm17.7 0c0 2.8-2.3 5.1-5.1 5.1h-1.1c-2.8 0-5.1-2.3-5.1-5.1v-30c0-2.8 2.3-5.1 5.1-5.1h1.1c2.8 0 5.1 2.3 5.1 5.1v30zm17.8 0c0 2.8-2.3 5.1-5.1 5.1h-1.1c-2.8 0-5.1-2.3-5.1-5.1v-30c0-2.8 2.3-5.1 5.1-5.1h1.1c2.8 0 5.1 2.3 5.1 5.1v30zm20 0c0 2.8-2.3 5.1-5.1 5.1h-1.1c-2.8 0-5.1-2.3-5.1-5.1v-30c0-2.8 2.3-5.1 5.1-5.1h1.1c2.8 0 5.1 2.3 5.1 5.1v30zm17.7 0c0 2.8-2.3 5.1-5.1 5.1h-1.1c-2.8 0-5.1-2.3-5.1-5.1v-30c0-2.8 2.3-5.1 5.1-5.1h1.1c2.8 0 5.1 2.3 5.1 5.1v30zm17.8 0c0 2.8-2.3 5.1-5.1 5.1h-1.1c-2.8 0-5.1-2.3-5.1-5.1v-30c0-2.8 2.3-5.1 5.1-5.1h1.1c2.8 0 5.1 2.3 5.1 5.1v30zm17.7 0c0 2.8-2.3 5.1-5.1 5.1h-1.1c-2.8 0-5.1-2.3-5.1-5.1v-30c0-2.8 2.3-5.1 5.1-5.1h1.1c2.8 0 5.1 2.3 5.1 5.1v30zm17.8 0c0 2.8-2.3 5.1-5.1 5.1h-1.1c-2.8 0-5.1-2.3-5.1-5.1v-30c0-2.8 2.3-5.1 5.1-5.1h1.1c2.8 0 5.1 2.3 5.1 5.1v30zm17.7 0c0 2.8-2.3 5.1-5.1 5.1h-1.1c-2.8 0-5.1-2.3-5.1-5.1v-30c0-2.8 2.3-5.1 5.1-5.1h1.1c2.8 0 5.1 2.3 5.1 5.1v30zm17.8 0c0 2.8-2.3 5.1-5.1 5.1h-1.1c-2.8 0-5.1-2.3-5.1-5.1v-30c0-2.8 2.3-5.1 5.1-5.1h1.1c2.8 0 5.1 2.3 5.1 5.1v30zm20 0c0 2.8-2.3 5.1-5.1 5.1h-1.1c-2.8 0-5.1-2.3-5.1-5.1v-30c0-2.8 2.3-5.1 5.1-5.1h1.1c2.8 0 5.1 2.3 5.1 5.1v30zm17.7 0c0 2.8-2.3 5.1-5.1 5.1h-1.1c-2.8 0-5.1-2.3-5.1-5.1v-30c0-2.8 2.3-5.1 5.1-5.1h1.1c2.8 0 5.1 2.3 5.1 5.1v30zm17.8 0c0 2.8-2.3 5.1-5.1 5.1h-1.1c-2.8 0-5.1-2.3-5.1-5.1v-30c0-2.8 2.3-5.1 5.1-5.1h1.1c2.8 0 5.1 2.3 5.1 5.1v30zm17.7 0c0 2.8-2.3 5.1-5.1 5.1h-1.1c-2.8 0-5.1-2.3-5.1-5.1v-30c0-2.8 2.3-5.1 5.1-5.1h1.1c2.8 0 5.1 2.3 5.1 5.1v30zm17.8 0c0 2.8-2.3 5.1-5.1 5.1h-1.1c-2.8 0-5.1-2.3-5.1-5.1v-30c0-2.8 2.3-5.1 5.1-5.1h1.1c2.8 0 5.1 2.3 5.1 5.1v30zm20 0c0 2.8-2.3 5.1-5.1 5.1h-1.1c-2.8 0-5.1-2.3-5.1-5.1v-30c0-2.8 2.3-5.1 5.1-5.1h1.1c2.8 0 5.1 2.3 5.1 5.1v30zm17.7 0c0 2.8-2.3 5.1-5.1 5.1h-1.1c-2.8 0-5.1-2.3-5.1-5.1v-30c0-2.8 2.3-5.1 5.1-5.1h1.1c2.8 0 5.1 2.3 5.1 5.1v30zm17.8 0c0 2.8-2.3 5.1-5.1 5.1h-1.1c-2.8 0-5.1-2.3-5.1-5.1v-30c0-2.8 2.3-5.1 5.1-5.1h1.1c2.8 0 5.1 2.3 5.1 5.1v30zm17.8 0c0 2.8-2.3 5.1-5.1 5.1h-1.1c-2.8 0-5.1-2.3-5.1-5.1v-30c0-2.8 2.3-5.1 5.1-5.1h1.1c2.8 0 5.1 2.3 5.1 5.1v30zm17.7 0c0 2.8-2.3 5.1-5.1 5.1h-1.1c-2.8 0-5.1-2.3-5.1-5.1v-30c0-2.8 2.3-5.1 5.1-5.1h1.1c2.8 0 5.1 2.3 5.1 5.1v30zm17.8 0c0 2.8-2.3 5.1-5.1 5.1H529c-2.8 0-5.1-2.3-5.1-5.1v-30c0-2.8 2.3-5.1 5.1-5.1h1.1c2.8 0 5.1 2.3 5.1 5.1v30zm17.7 0c0 2.8-2.3 5.1-5.1 5.1h-1.1c-2.8 0-5.1-2.3-5.1-5.1v-30c0-2.8 2.3-5.1 5.1-5.1h1.1c2.8 0 5.1 2.3 5.1 5.1v30zm20 0c0 2.8-2.3 5.1-5.1 5.1h-1.1c-2.8 0-5.1-2.3-5.1-5.1v-30c0-2.8 2.3-5.1 5.1-5.1h1.1c2.8 0 5.1 2.3 5.1 5.1v30zm17.8 0c0 2.8-2.3 5.1-5.1 5.1h-1.1c-2.8 0-5.1-2.3-5.1-5.1v-30c0-2.8 2.3-5.1 5.1-5.1h1.1c2.8 0 5.1 2.3 5.1 5.1v30z"/><path d="M12 15.7c0-.7-.3-1.3-.8-1.8-.9-.6-1.9-1-2.9-1.3-1.2-.4-2.3-.8-3.3-1.4C2.7 10 1.5 8.4 1.5 6.3c0-1 .3-2 .9-2.9C3.1 2.6 4 1.9 5 1.5 6.3 1 7.5.8 8.8.8c1.3 0 2.6.2 3.8.8 1 .5 1.9 1.2 2.6 2.2.6.9.9 2.1.9 3.2H12c0-.8-.3-1.6-.9-2.1-.6-.6-1.5-.9-2.4-.8-.8-.1-1.6.1-2.3.6-.5.4-.8 1-.8 1.7 0 .6.4 1.3 1 1.6.9.5 1.9.9 2.9 1.2 1.9.5 3.6 1.3 5.1 2.6 1 1 1.6 2.4 1.6 3.9.1 1.6-.7 3.1-1.9 4-1.5 1-3.4 1.6-5.2 1.5-1.4 0-2.8-.3-4.2-.8-1.3-.6-2.3-1.4-3-2.4-.7-1-1-2.2-1-3.4H5c0 2.2 1.3 3.3 3.9 3.3.8 0 1.6-.2 2.3-.6.5-.4.8-1 .8-1.6zm13.4 5.4c-2 .1-3.8-.6-5.3-2-1.4-1.4-2.1-3.3-2-5.3v-.4c0-1.4.3-2.8.9-4 .5-1.1 1.4-2.1 2.4-2.7 1.1-.7 2.3-1 3.6-1 1.8-.1 3.5.7 4.7 2 1.2 1.5 1.9 3.4 1.7 5.4v1.6H22c.1.9.5 1.7 1.1 2.3.7.6 1.5.9 2.4.9 1.4.1 2.7-.6 3.5-1.6l1.9 2.2c-.6.9-1.4 1.6-2.4 2-.8.4-2 .7-3.1.6zm-.5-12c-.7 0-1.4.3-1.9.8-.5.6-.9 1.4-.9 2.3h5.5v-.3c0-.7-.2-1.4-.7-2-.6-.6-1.3-.9-2-.8zm17 .8c-.5-.1-.9-.1-1.4-.1-1.2-.2-2.4.4-2.9 1.5v9.6h-3.9V6.2h3.7l.1 1.8c.6-1.2 1.9-2 3.3-2 .4 0 .9 0 1.3.2l-.2 3.7zm7.6 6.2l2.7-9.9h4.1l-5 14.7h-3.7l-5-14.7h4.1l2.8 9.9zm15.2 5c-2 .1-3.9-.6-5.3-2s-2.1-3.3-2-5.3v-.4c0-1.4.3-2.8.9-4 .5-1.1 1.4-2 2.4-2.7 1.1-.7 2.3-1 3.6-1 1.8-.1 3.5.7 4.7 2 1.2 1.5 1.9 3.4 1.7 5.4v1.6h-9.4c.1.9.5 1.7 1.2 2.3.7.6 1.5.9 2.4.9 1.4.1 2.7-.5 3.6-1.6l1.9 2.2c-.6.9-1.4 1.6-2.4 2-1 .4-2.2.7-3.3.6zm-.5-12c-.7 0-1.4.3-1.9.8-.5.6-.9 1.4-.9 2.3h5.5v-.3c0-.7-.2-1.4-.7-2-.5-.6-1.2-.9-2-.8zm17 .8c-.5-.1-.9-.1-1.4-.1-1.2-.2-2.4.4-2.9 1.5v9.6H73V6.2h3.7l.1 1.8c.6-1.2 1.9-2 3.3-2 .4 0 .8.1 1.2.2l-.1 3.7z" fill="#738199"/><path class="st0" d="M51.9 144.6h-3.8v-14.5l-4.5 1.4v-3.1l7.8-2.8h.4l.1 19zm18.9-7.8c.1 2.1-.4 4.2-1.6 6-1.2 1.4-2.9 2.2-4.8 2.1-1.8.1-3.6-.6-4.7-2-1.2-1.7-1.8-3.8-1.7-5.9v-3.5c-.1-2.1.4-4.2 1.7-6 1.2-1.4 2.9-2.1 4.7-2 1.8-.1 3.6.6 4.7 2 1.2 1.7 1.8 3.8 1.7 5.9v3.4zm-3.7-3.8c.1-1.2-.1-2.4-.7-3.4-.4-.7-1.2-1.1-2-1.1-.8-.1-1.6.3-2 1-.5 1-.7 2.1-.7 3.2v4.6c-.1 1.2.1 2.4.6 3.4.4.7 1.2 1.2 2 1.1.8.1 1.6-.4 2-1.1.5-1 .7-2.2.6-3.3l.2-4.4zm19 3.8c.1 2.1-.4 4.2-1.6 6-2.4 2.6-6.5 2.8-9.2.3l-.3-.3c-1.2-1.7-1.8-3.7-1.7-5.8v-3.5c-.1-2.1.4-4.2 1.7-6 2.5-2.6 6.6-2.7 9.2-.2l.2.2c1.2 1.7 1.8 3.8 1.7 5.9v3.4zm-3.7-3.8c.1-1.2-.1-2.4-.7-3.4-.4-.7-1.2-1.1-2-1.1-.8-.1-1.6.3-2 1-.5 1-.7 2.1-.7 3.2v4.6c-.1 1.2.1 2.4.6 3.4.4.7 1.2 1.2 2 1.1.8.1 1.6-.4 2-1.1.5-1 .7-2.2.6-3.3l.2-4.4zm6.6 9.8c0-.6.2-1.1.6-1.5.9-.7 2.2-.7 3.1 0 .8.8.8 2.1 0 2.9-.4.4-1 .6-1.5.6-.6 0-1.1-.2-1.5-.6-.5-.4-.7-.9-.7-1.4zm20.2-6c.1 2.1-.4 4.2-1.6 6-2.4 2.6-6.5 2.8-9.2.3l-.3-.3c-1.2-1.7-1.8-3.7-1.7-5.8v-3.5c-.1-2.1.4-4.2 1.6-6 2.5-2.6 6.6-2.7 9.2-.2l.2.2c1.2 1.7 1.8 3.8 1.7 5.9v3.4zm-3.8-3.8c.1-1.2-.1-2.4-.6-3.4-.4-.7-1.2-1.1-2-1.1-.8-.1-1.6.3-2 1-.5 1-.7 2.1-.7 3.2v4.6c-.1 1.2.1 2.4.6 3.4.7 1.1 2.2 1.4 3.3.7.3-.2.5-.4.7-.7.5-1 .7-2.2.6-3.3l.1-4.4zm19.1 3.8c.1 2.1-.4 4.2-1.6 6-2.4 2.6-6.5 2.8-9.2.3l-.3-.3c-1.2-1.7-1.8-3.8-1.7-5.9v-3.5c-.1-2.1.4-4.2 1.7-6 2.5-2.6 6.6-2.7 9.2-.2l.2.2c1.2 1.7 1.8 3.8 1.7 5.9v3.5zm-3.8-3.8c.1-1.2-.1-2.4-.7-3.4-.4-.7-1.2-1.1-2-1.1-.8-.1-1.6.3-2 1-.5 1-.7 2.1-.7 3.2v4.6c-.1 1.2.1 2.4.6 3.4.4.7 1.2 1.2 2 1.1.8.1 1.6-.4 2-1.1.5-1 .7-2.2.6-3.3l.2-4.4zm12.9-3.7c0-1.1.4-2.1 1.1-2.8 1.7-1.5 4.3-1.5 6 0 .8.8 1.2 1.8 1.1 2.9v.9c0 1.1-.4 2.1-1.1 2.8-1.7 1.4-4.3 1.4-6 0-.8-.8-1.2-1.8-1.1-2.9v-.9zm2.5 1c0 .5.1.9.4 1.3.3.3.7.5 1.2.5.4 0 .9-.2 1.1-.5.3-.4.5-.8.4-1.3v-1c0-.5-.1-.9-.4-1.3-.3-.3-.7-.5-1.2-.5-.4 0-.9.2-1.2.5-.3.4-.5.8-.4 1.3l.1 1zm2.4 12.9l-1.8-1 9.3-14.8 1.8 1-9.3 14.8zm4.1-3.2c0-1.1.4-2.1 1.1-2.8 1.7-1.4 4.3-1.4 6 0 .8.8 1.2 1.8 1.1 2.9v.9c0 1.1-.4 2.1-1.1 2.8-.8.7-1.9 1.1-3 1.1s-2.2-.3-3-1.1c-.8-.8-1.2-1.8-1.1-2.9v-.9zm2.5 1c0 .5.2.9.5 1.2.3.3.7.5 1.2.5 1.1 0 1.6-.6 1.6-1.8v-1c0-.5-.1-.9-.4-1.3-.7-.6-1.7-.6-2.3 0-.3.4-.5.8-.4 1.3v1.1z"/><circle class="st0" cx="14.1" cy="131.7" r="14.1"/></svg>