<svg xmlns="http://www.w3.org/2000/svg" viewBox="0 0 800 677"><path d="M0 1.1h675.9V677H0V1.1z" fill="#ebfbf1"/><path d="M492.2 314.2c84.7 0 153.5-68.7 153.5-153.5S577 7.3 492.2 7.3 338.7 76 338.7 160.8c.1 84.7 68.8 153.4 153.5 153.4z" fill="#27c6f4"/><path d="M82.8 532.3c2.7-10.7 4.3-21.7 8.2-31.9 13.9-37.4 39.6-63.5 76.5-78.7 1.4-.6 2.7-1.2 4.2-1.8-44.3-35.3-36.4-89.9-8.7-116.8 29.7-28.7 76.3-28.8 106.4-.6 27.2 25.6 37.1 81.2-7 116.5 14 8.2 28.3 16.5 43.1 25.2 8.5-5.5 17.7-12.4 27.7-17.9 9.8-5.4 20.4-9.4 31.3-14.3-30.9-21.5-47-50.8-44.9-88.7 1.5-27.7 13.7-50.4 34.9-68.1 40.7-33.9 101.8-27.8 135.8 13.1 33.2 40 30.9 107.2-23.5 143.8 2.2 1 3.9 2 5.8 2.6 18.1 6.1 34.6 15 49.3 27.1 4.2 3.5 6.7 2.8 11-.2 12.1-8.2 24.8-15.6 37.4-23.3-21.7-16.9-32.6-40.4-29.9-69.4 1.9-20.1 11.2-36.6 26.5-49.9 30.4-26.4 77.4-23.5 105.2 6.4 26.6 28.5 30.8 80.4-11.4 114.2 28.2 10.6 50.8 28 67.2 53 16.3 24.9 23.4 52.2 21.8 82.7H588.4v29.2c-.1 40.9-29.5 71.8-70.4 72.2-67.9.6-135.9.5-203.8 0-41.1-.3-70.7-31.3-70.9-72.6v-28.3c.2 0-.6-.3-1.4-.3-53 0-105.9.1-158.9.1-.2-7.7-.2-15.5-.2-23.3zm332.2 103s0 0 0 0c34.5 0 69 .2 103.5-.1 24-.2 45.2-18.6 47.4-41.1 2.1-21.8.4-43.4-7.1-64.1-20.1-55.5-58.9-90.2-117-101-47.9-9-90.8 3.9-127.2 36.2-28.2 25-44.6 56.8-49 94.1-1.5 12.6-1.9 25.8.4 38.1 4.4 22.8 23.9 37.6 47.4 37.7 33.8.4 67.7.2 101.6.2zm0-230.6c41.7 0 75.5-33.4 75.6-74.8.1-41.6-33.5-75.2-75.1-75.3-41.7-.1-75.1 33.3-75.2 75.1 0 41.4 33.4 75 74.7 75zm312.3 128.8c-3.2-42-34-80.5-76.3-94.2-39.5-12.8-75.4-4.7-108.1 21.1 1 1.5 1.5 2.5 2.2 3.2 16.9 19.4 29.1 41.4 36.2 66.1 1.4 4.7 4.3 4 7.4 4h132.8c1.9 0 3.8-.1 5.8-.2zm-623-.4c1.9.3 2.5.6 3.2.6 45.5 0 91.1 0 136.6.1 3.6 0 4.8-1.5 5.7-4.7 4.8-16.8 12-32.5 21.9-46.8 5.3-7.6 10.9-14.9 16.7-22.7-37.5-28.4-77.7-34.9-120.4-15-37 17.4-57.4 47.9-63.7 88.5zm511.5-230.6c-30.1.2-55.1 24.4-54.7 54.5.4 31.5 23.6 54.5 54.9 55 30.1.5 54.9-25.2 54.6-55.3-.3-30.2-24.8-54.4-54.8-54.2zm-399.5 0c-30 .1-54.6 23.1-55.1 54.8-.5 29.7 24.7 55 54.6 54.7 31.2-.2 54.6-24.8 54.9-54.3.4-30.3-23.9-55-54.4-55.2z" stroke="#000" stroke-width="7" stroke-miterlimit="10"/></svg>