<svg xmlns="http://www.w3.org/2000/svg" viewBox="0 0 800 677"><path d="M0 1.1h675.9V677H0V1.1z" fill="#ebfbf1"/><path d="M348 483.3c84.7 0 153.5-68.7 153.5-153.5S432.8 176.4 348 176.4s-153.5 68.7-153.5 153.5c.1 84.7 68.8 153.4 153.5 153.4z" fill="#27c6f4"/><path d="M292 585.2c0-37.8 30.6-68.5 68.4-68.5 24.4 0 47 13 59.3 34.1 52.1-23 71.6-59 71.6-127.5v-74.7c0-99.4-56.1-168.1-143.2-168.1s-143.2 68.7-143.2 168.1v87.2c0 10.3-8.4 18.7-18.7 18.7h-24.9c-37.8 0-68.4-30.7-68.5-68.5v-25c0-37.8 30.7-68.5 68.5-68.5h11.9C192 203.5 256.5 143 348 143s156 60.5 174.9 149.5h11.9c37.8.1 68.4 30.7 68.5 68.5v24.9c0 37.8-30.7 68.5-68.5 68.5h-7.7c-2 60.4-41 113.3-98.1 133-.6 37.8-31.8 68-69.6 67.4-37.8-.6-68-31.8-67.4-69.6zm37.4 0c0 17.2 13.9 31.1 31.1 31.1s31.1-13.9 31.1-31.1-13.9-31.2-31.1-31.2c-17.2 0-31.1 14-31.1 31.2zM528.6 417h6.2c17.2 0 31.1-13.9 31.2-31.1V361c0-17.2-13.9-31.1-31.1-31.2h-6.2V417zm-398.5-56v24.9c0 17.2 14 31.1 31.1 31.1h6.2v-87.2h-6.2c-17.2 0-31.1 14-31.1 31.2z" fill="#131a26"/></svg>