<svg xmlns="http://www.w3.org/2000/svg" width="162" height="162"><path fill="#EAEDEF" d="M3.7 61.8h39.1c.6 0 1.1.5 1.1 1.1v10c0 .6-.5 1.1-1.1 1.1H3.7c-.6 0-1.1-.5-1.1-1.1v-10c.1-.7.5-1.1 1.1-1.1zm.5-39.3h58.4c.9 0 1.6.7 1.6 1.6v15c0 .9-.7 1.6-1.6 1.6H4.2c-.9 0-1.6-.7-1.6-1.6v-15c.1-.9.8-1.6 1.6-1.6zm66.5 0h35c.9 0 1.6.7 1.6 1.6v15c0 .9-.7 1.6-1.6 1.6h-35c-.9 0-1.6-.7-1.6-1.6v-15c.1-.9.8-1.6 1.6-1.6z"/><path fill="#738199" d="M49.2 61.8h35c.6 0 1.1.5 1.1 1.1v10c0 .6-.5 1.1-1.1 1.1h-35c-.6 0-1.1-.5-1.1-1.1v-10c.1-.7.6-1.1 1.1-1.1z"/><path fill="#EAEDEF" d="M3.7 78.2h30.7c.6 0 1.1.5 1.1 1.1v10c0 .6-.5 1.1-1.1 1.1H3.7c-.6 0-1.1-.5-1.1-1.1v-10c.1-.6.5-1.1 1.1-1.1zm40.5 16.4h27c.6 0 1.1.5 1.1 1.1v10c0 .6-.5 1.1-1.1 1.1h-27c-.6 0-1.1-.5-1.1-1.1v-10c0-.6.5-1.1 1.1-1.1zm-3.4-16.4h44.9c.6 0 1.1.5 1.1 1.1v10c0 .6-.5 1.1-1.1 1.1H40.8c-.6 0-1.1-.5-1.1-1.1v-10c.1-.6.5-1.1 1.1-1.1zm50.5-16.4H122c.6 0 1.1.5 1.1 1.1v10c0 .6-.5 1.1-1.1 1.1H91.3c-.6 0-1.1-.5-1.1-1.1v-10c.1-.6.5-1.1 1.1-1.1zm37.1 0h29.2c.6 0 1.1.5 1.1 1.1v10c0 .6-.5 1.1-1.1 1.1h-29.2c-.6 0-1.1-.5-1.1-1.1v-10c0-.6.5-1.1 1.1-1.1zM3.7 94.6h34.1c.6 0 1.1.5 1.1 1.1v10c0 .6-.5 1.1-1.1 1.1H3.7c-.6 0-1.1-.5-1.1-1.1v-10c.1-.6.5-1.1 1.1-1.1zm0 26.1h93.1c.6 0 1.1.5 1.1 1.1v3.2c0 .6-.5 1.1-1.1 1.1H3.7c-.6 0-1.1-.5-1.1-1.1v-3.2c.1-.6.5-1.1 1.1-1.1zm88.4-42.5h38c.6 0 1.1.5 1.1 1.1v10c0 .6-.5 1.1-1.1 1.1h-38c-.6 0-1.1-.5-1.1-1.1v-10c.1-.6.5-1.1 1.1-1.1zM76.7 94.6h43.7c.6 0 1.1.5 1.1 1.1v10c0 .6-.5 1.1-1.1 1.1H76.7c-.6 0-1.1-.5-1.1-1.1v-10c0-.6.5-1.1 1.1-1.1zm49.2 0H146c.6 0 1.1.5 1.1 1.1v10c0 .6-.5 1.1-1.1 1.1h-20.1c-.6 0-1.1-.5-1.1-1.1v-10c0-.6.5-1.1 1.1-1.1z"/><path fill="#DF484A" d="M81.4 67.1h-9.9c-.8 0-1.5-.4-2-1.1-.4-.7-.4-1.5-.1-2.2l5-9.4c.4-.8 1.2-1.2 2-1.2s1.6.5 2 1.2l5 9.4c.4.7.3 1.5-.1 2.2-.4.7-1.1 1.1-1.9 1.1z"/><path fill="#FFF" d="M76.4 63c.2 0 .4.1.6.2.1.1.2.3.2.5s-.1.4-.2.6c-.1.1-.3.2-.6.2-.2 0-.4-.1-.6-.2-.1-.1-.2-.3-.2-.6s.1-.4.2-.5c.2-.1.4-.2.6-.2zm.4-.8H76c-.1 0-.2-.1-.2-.2l-.2-4.6c0-.1.1-.2.2-.2H77c.1 0 .2.1.2.2L77 62c.1.1-.1.2-.2.2z"/></svg>