<svg version="1.1" id="Layer_1" xmlns="http://www.w3.org/2000/svg" x="0" y="0" viewBox="0 0 800 677" xml:space="preserve"><style>.st1,.st3,.st4{fill:#131a26}.st3{fill-rule:evenodd;clip-rule:evenodd}.st4{stroke:#131a26;stroke-width:11;stroke-miterlimit:10}</style><path d="M0 1.1h675.9V677H0V1.1z" fill="#ebfbf1"/><path class="st1" d="M762.6 321.9c-10.1-20.6-28.3-33-48.7-33-15 0-29.7 6.7-41.6 18.9-2.8 2.9-5.6 5.8-8.3 8.7-5.7 6-11.7 12.3-17.8 18.1-11.7 11.1-23.8 22.3-35.6 33.1-4.4 4-8.8 8.1-13.2 12.2-19.5-14.4-22.3-15-52.5-15h-58.3c-23.1 0-40.7-.1-57.2-.2-6.4-.1-12.9-1.2-18.7-3.2-17.5-6.1-37.1-9.4-56.7-9.4-59.8 0-112.7 28.6-141.5 76.5-.9 1.4-4 2.6-6.5 3.5-.8.3-1.5.6-2.3.9-2.6 1.1-5.5 1.9-8.6 2.7-6.2 1.7-12.5 3.5-17.1 7.7-16.6 15.6-30.4 29.7-44.9 44.7-5.4 5.5-10.9 11.2-16.8 17.2-3.3 3-5.2 7.3-5.2 11.8 0 4.2 1.6 8.2 4.6 11.2 4.8 5.4 49.6 50.6 93 94.3 18.6 18.8 36.5 36.9 50.2 50.7l.9.9h.5c2.6 1.8 5.7 2.8 8.9 2.8s6.3-1 8.9-2.8h.4l1.6-1.6.6-.6c5.4-5.4 10.7-10.8 16.1-16.2 13.7-13.8 27.8-28.1 41.9-41.9 11.7-11.4 16.3-24.5 14.3-40-.3-1.9.3-4.5 1.2-5.6 11.7-13.8 24.9-20 41.5-19.8 22.9.3 47.9.5 76.4.5 26.3 0 53.1-.1 78.9-.3h5.8c36.4-.2 66.7-14.5 89.8-42.5 15.1-18.3 30.6-36.8 45.6-54.7 17.2-20.6 35-41.8 52.4-62.9 5.1-6.1 9.5-12.8 13.8-19.3 2-2.9 4-6 6-8.9l.3-.4.1-.4c6.1-18.1 5.2-22.7-2.2-37.7zM319.4 588.4c-11.9 12.7-24.2 25.2-36 37.3-3.9 4-7.8 7.9-11.6 11.9L148.4 517l29.6-29.8 5.6-5.6c4.2-4.3 8.6-8.7 13-12.9 3.1-3 5.9-4.4 8.5-4.4 2.5 0 5 1.3 7.7 4 29.2 29 58.7 58.6 87.3 87.2l18 18.1c5.2 5.2 5.6 10.2 1.3 14.8zm259.5-157.2c-4.3 6.2-11.6 9.8-19.9 9.9-11.5.1-24.1.1-39.6.1h-55.7c-.5 0-1-.1-1.5-.1-8.7 0-15.8 7.1-15.8 15.8s7 15.7 15.6 15.8c.2 0 .5.1.7.1h8.2c28 .1 56.1.1 84.1 0 35.9-.1 56.9-20 59.1-56 .1-2.3 1.6-5.4 3.7-7.5 24.8-25.8 50.4-52.3 78.3-80.8 5-5.1 11.2-7.9 17.5-7.9 5.4 0 10.5 2 14.6 5.8 9.1 8.3 9.7 21.5 1.4 31.5-5.6 6.8-11.3 13.6-16.9 20.4-30.9 37.3-62.8 75.9-94.9 113.2-14.7 17.2-36 25.9-63.2 25.9-12.3 0-24.7.1-37 .1-17 .1-34.6.1-51.8.1-25.9 0-47.3-.2-67.2-.5h-2.2c-26.2 0-45.5 8-60.9 25.2l-.9.9-96.1-96c19.3-33.5 49.2-54.1 88.8-61.2 9.3-1.7 18.5-2.5 27.5-2.5 18 0 35.7 3.4 52.5 10.2 5.2 2.1 11.3 2.4 15.9 2.4 26.6.1 53.5.1 77.3.1h56.6c12.7 0 20.6 4.9 24.3 15 2.3 7 1.4 14.3-2.5 20z"/><path class="st1" d="M403.9 439.1c-8.7 0-15.8 7.1-15.8 15.8s7.1 15.8 15.8 15.8c8.7 0 15.8-7.1 15.8-15.8s-7.1-15.8-15.8-15.8z"/><path d="M492 323.8c84.7 0 153.5-68.7 153.5-153.5S576.8 16.9 492 16.9 338.5 85.6 338.5 170.4c.1 84.7 68.8 153.4 153.5 153.4z" fill="#27c6f4"/><path class="st3" d="M491.9 1c-81.1 0-148.8 57.4-164.7 133.8h30.7c15.3-59.7 69.5-103.9 134-103.9 76.4 0 138.3 61.9 138.3 138.3s-61.9 138.3-138.3 138.3c-71.8 0-130.8-54.7-137.6-124.7h-30c7 86.5 79.3 154.6 167.6 154.6 92.9 0 168.2-75.3 168.2-168.2C660.1 76.3 584.8 1 491.9 1z"/><path class="st3" d="M342.6 119c-8.5 0-15.2 14.3-15.4 15.4-1.6 9.7 6.9 15.4 15.4 15.4s14.5-7 15.4-15.4c1.2-9.5-6.8-15.4-15.4-15.4z"/><circle class="st3" cx="339.3" cy="182.8" r="15"/><path class="st4" d="M466.5 232.5l3.9-4.9-3.9 4.9zM492 120l-4.5 4.4c1.2 1.2 2.8 1.9 4.5 1.9s3.3-.7 4.5-1.9L492 120zm25.5 112.5l3.9 4.9-3.9-4.9zm-47.1-5c-12.7-10-26.6-19.8-37.6-32.2-10.8-12.2-18.4-26.4-18.4-44.8h-12.6c0 22.4 9.3 39.4 21.5 53.2 12 13.5 27.3 24.3 39.3 33.8l7.8-10zm-56-77c0-18 10.2-33.2 24.1-39.5 13.5-6.2 31.7-4.5 49 13.4l9.1-8.7c-20.5-21.3-44.3-24.8-63.3-16.1-18.6 8.5-31.5 28.2-31.5 51h12.6zm48.2 86.9c4.3 3.4 8.9 7 13.6 9.7 4.7 2.7 10 5 15.8 5v-12.6c-2.6 0-5.7-1-9.4-3.2-3.8-2.2-7.7-5.3-12.1-8.7l-7.9 9.8zm58.8 0c12-9.4 27.3-20.2 39.3-33.8 12.2-13.8 21.5-30.8 21.5-53.2h-12.6c0 18.4-7.5 32.6-18.4 44.8-11 12.4-24.9 22.2-37.6 32.2l7.8 10zm60.8-86.9c0-22.8-12.9-42.5-31.5-51-19-8.7-42.8-5.2-63.3 16.1l9.1 8.7c17.3-17.9 35.4-19.6 49-13.4 13.9 6.4 24.1 21.5 24.1 39.5h12.6zm-68.6 77c-4.4 3.5-8.3 6.5-12.1 8.7-3.8 2.2-6.9 3.2-9.4 3.2V252c5.8 0 11.1-2.2 15.8-5 4.7-2.7 9.3-6.3 13.6-9.7l-7.9-9.8z"/><ellipse class="st4" cx="492.1" cy="121.7" rx="5" ry="5.9"/><ellipse class="st4" cx="491.9" cy="252.3" rx="7.2" ry="1.1"/></svg>